<!DOCTYPE svg PUBLIC "-//W3C//DTD SVG 1.1//EN" "http://www.w3.org/Graphics/SVG/1.1/DTD/svg11.dtd">
<!-- Uploaded to: SVG Repo, www.svgrepo.com, Transformed by: SVG Repo Mixer Tools -->
<svg fill="#ffffff" width="64px" height="64px" viewBox="0 0 24 24" id="tablet-handphone" data-name="Flat Line" xmlns="http://www.w3.org/2000/svg" class="icon flat-line">
<g id="SVGRepo_bgCarrier" stroke-width="0"/>
<g id="SVGRepo_tracerCarrier" stroke-linecap="round" stroke-linejoin="round"/>
<g id="SVGRepo_iconCarrier">
<path id="secondary" d="M11,21h9a1,1,0,0,0,1-1V4a1,1,0,0,0-1-1H6A1,1,0,0,0,5,4V9h6a1,1,0,0,1,1,1V20A1,1,0,0,1,11,21Z" style="fill: #ffffff; stroke-width: 2;"/>
<path id="primary" d="M12,20V10a1,1,0,0,0-1-1H5V4A1,1,0,0,1,6,3H20a1,1,0,0,1,1,1V20a1,1,0,0,1-1,1H11A1,1,0,0,0,12,20ZM3,10V20a1,1,0,0,0,1,1h7a1,1,0,0,0,1-1V10a1,1,0,0,0-1-1H4A1,1,0,0,0,3,10ZM6,9H9l-.5,2h-2Z" style="fill: none; stroke: #000000; stroke-linecap: round; stroke-linejoin: round; stroke-width: 2;"/>
</g>
</svg>